<svg xmlns="http://www.w3.org/2000/svg" xmlns:xlink="http://www.w3.org/1999/xlink" width="68px" height="64px" viewBox="0 0 68 64"><title>forest</title><g id="Page-1" stroke="none" stroke-width="1" fill="none" fill-rule="evenodd"><g id="Home-4---Lodge-Forest" transform="translate(-686.000000, -676.000000)" fill="#FFFFFF" fill-rule="nonzero"><g id="forest" transform="translate(686.000000, 676.000000)"><path d="M44.5828841,54.0051699 C43.9858401,54.0051699 43.5020659,54.4890882 43.5020659,55.0859881 L43.5020659,62.9191818 C43.5020659,63.5160817 43.9858401,64 44.5828841,64 C45.179928,64 45.6637023,63.5160817 45.6637023,62.9191818 L45.6637023,55.0859881 C45.6637023,54.4890882 45.179928,54.0051699 44.5828841,54.0051699 Z" id="Path"></path><path d="M23.1483862,54.0051699 C22.5513422,54.0051699 22.067568,54.4890882 22.067568,55.0859881 L22.067568,62.9191818 C22.067568,63.5160817 22.5513422,64 23.1483862,64 C23.7454301,64 24.2292044,63.5160817 24.2292044,62.9191818 L24.2292044,55.0859881 C24.2292044,54.4890882 23.745286,54.0051699 23.1483862,54.0051699 Z" id="Path"></path><path d="M67.6756453,50.4206004 L56.3253251,16.4032172 C56.1781897,15.9619552 55.7651731,15.664514 55.300133,15.664514 C54.835093,15.664514 54.4220764,15.9620993 54.274941,16.4032172 L50.8625818,26.6304953 L45.6080762,10.882398 C45.4609408,10.44128 45.0479241,10.1436948 44.5828841,10.1436948 C44.1178441,10.1436948 43.7048274,10.44128 43.557692,10.882398 L40.9164606,18.797878 L34.8908272,0.738703198 C34.7436918,0.297585272 34.3306752,0 33.8656351,0 C33.4005951,0 32.9875784,0.297585272 32.8404431,0.738703198 L26.8146655,18.7981662 L24.1735782,10.8825421 C24.0264429,10.44128 23.6134262,10.1438389 23.1483862,10.1438389 C22.6833461,10.1438389 22.2703295,10.44128 22.1231941,10.8825421 L16.8686884,26.6303512 L13.4563293,16.4033613 C13.3091939,15.9622434 12.8961772,15.6646581 12.4311372,15.6646581 C11.9660972,15.6646581 11.5530805,15.9620993 11.4059451,16.4033613 L0.0556249513,50.4206004 C-0.0544743939,50.750322 0.000863496839,51.1126122 0.203913205,51.3944896 C0.406962914,51.6765111 0.733370004,51.8435336 1.08081702,51.8435336 L11.350319,51.8435336 L11.350319,62.9191818 C11.350319,63.5160817 11.8340933,64 12.4311372,64 C13.0281812,64 13.5119554,63.5160817 13.5119554,62.9191818 L13.5119554,51.8435336 L32.7848169,51.8435336 L32.7848169,62.9191818 C32.7848169,63.5160817 33.2685912,64 33.8656351,64 C34.4626791,64 34.9464533,63.5160817 34.9464533,62.9191818 L34.9464533,51.8435336 L54.2193149,51.8435336 L54.2193149,62.9191818 C54.2193149,63.5160817 54.7030891,64 55.300133,64 C55.897177,64 56.3809512,63.5160817 56.3809512,62.9191818 L56.3809512,51.8435336 L66.6504532,51.8435336 C66.9979003,51.8435336 67.3243073,51.6765111 67.5273571,51.3944896 C67.7304068,51.1126122 67.7857447,50.7501779 67.6756453,50.4206004 Z M44.5828841,14.639322 L49.7231112,30.0451602 L47.1961583,37.6185252 L42.0557871,22.2125429 L44.5828841,14.639322 Z M23.1483862,14.6394661 L25.6753391,22.2129752 L20.5349678,37.6186693 L18.0080149,30.0450161 L23.1483862,14.6394661 Z M12.4311372,41.8698875 C11.8340933,41.8698875 11.350319,42.3538058 11.350319,42.9507057 L11.350319,49.6818972 L2.58084855,49.6818972 L12.4311372,20.1602853 L19.3956413,41.0334783 L16.5100009,49.6818972 L13.5119554,49.6818972 L13.5119554,42.9507057 C13.5119554,42.3538058 13.0280371,41.8698875 12.4311372,41.8698875 Z M34.9464533,43.756996 L40.503444,37.7980852 C40.910408,37.3615787 40.88663,36.677637 40.4501236,36.2705288 C40.013473,35.8632765 39.3296754,35.8873427 38.9224231,36.3238492 L34.9464533,40.5873166 L34.9464533,32.1353184 C34.9464533,31.5384186 34.4626791,31.0545003 33.8656351,31.0545003 C33.2685912,31.0545003 32.7848169,31.5384186 32.7848169,32.1353184 L32.7848169,40.5180001 L28.8027946,36.3175084 C28.3917954,35.8843164 27.7077096,35.8661587 27.2746618,36.2767255 C26.8414698,36.6874364 26.823168,37.3715222 27.2338789,37.8047142 L32.7848169,43.6598665 L32.7848169,49.6818972 L18.7886539,49.6818972 L33.8656351,4.4957713 L48.9426164,49.6818972 L34.9464533,49.6818972 L34.9464533,43.756996 Z M56.3809512,49.6818972 L56.3809512,42.9507057 C56.3809512,42.3538058 55.897177,41.8698875 55.300133,41.8698875 C54.7030891,41.8698875 54.2193149,42.3538058 54.2193149,42.9507057 L54.2193149,49.6818972 L51.2212693,49.6818972 L48.3356289,41.0334783 L55.300133,20.1602853 L65.1504217,49.6818972 L56.3809512,49.6818972 Z" id="Shape"></path></g></g></g></svg>